# AST/ASF file generated using VICON BodyLanguage
# -----------------------------------------------
:version 1.10
:name VICON
:units
  mass 1.0
  length 0.45
  angle deg
:documentation
   .ast/.asf automatically generated from VICON data using
   VICON BodyBuilder and BodyLanguage model FoxedUp or BRILLIANT.MOD
:root
   order TX TY TZ RX RY RZ
   axis XYZ
   position 0 0 0  
   orientation 0 0 0 
:bonedata
  begin
     id 1 
     name lhipjoint
     direction 0.653368 -0.678499 0.335782 
     length 2.51848 
     axis 0 0 0  XYZ
  end
  begin
     id 2 
     name lfemur
     direction 0.34202 -0.939693 0  
     length 6.57749  
     axis 0 0 20  XYZ
    dof rx ry rz
    limits (-160.0 20.0)
           (-70.0 70.0)
           (-60.0 70.0)
  end
  begin
     id 3 
     name ltibia
     direction 0.34202 -0.939693 0   
     length 7.94618   
     axis 0 0 20   XYZ
    dof rx
    limits (-10.0 170.0)
  end
  begin
     id 4 
     name lfoot
     direction 0.0811271 -0.222895 0.971461   
     length 2.31339   
     axis -90 7.62852e-016 20   XYZ
    dof rx rz
    limits (-45.0 90.0)
           (-70.0 20.0)
  end
  begin
     id 5 
     name ltoes
     direction 1.53568e-011 -4.21885e-011 1   
     length 1.15935   
     axis -90 7.62852e-016 20   XYZ
    dof rx
    limits (-90.0 20.0)
  end
  begin
     id 6 
     name rhipjoint
     direction -0.640058 -0.688614 0.340788   
     length 2.48149  
     axis 0 0 0  XYZ 
  end
  begin
     id 7 
     name rfemur
     direction -0.34202 -0.939693 0   
     length 6.57875   
     axis 0 0 -20   XYZ
    dof rx ry rz
    limits (-160.0 20.0)
           (-70.0 70.0)
           (-70.0 60.0)
  end
  begin
     id 8 
     name rtibia
     direction -0.34202 -0.939693 0   
     length 7.977   
     axis 0 0 -20   XYZ
    dof rx
    limits (-10.0 170.0)
 end
 begin
     id 9 
     name rfoot
     direction -0.0979793 -0.269196 0.958089   
     length 2.19857  
     axis -90 -7.62852e-016 -20   XYZ
    dof rx rz
    limits (-45.0 90.0)
           (-20.0 70.0)
  end
  begin
     id 10 
     name rtoes
     direction -1.53556e-011 -4.21868e-011 1   
     length 1.09838   
     axis -90 -7.62852e-016 -20   XYZ
    dof rx
    limits (-90.0 20.0)
  end
  begin
     id 11 
     name lowerback
     direction 0.0149039 0.998517 -0.0523597   
     length 2.10809   
     axis 0 0 0   XYZ
    dof rx ry rz
    limits (-20.0 45.0)
           (-30.0 30.0)
           (-30.0 30.0)
  end
  begin
     id 12 
     name upperback
     direction -0.00882659 0.999418 -0.0329624   
     length 2.1102   
     axis 0 0 0   XYZ
    dof rx ry rz
    limits (-20.0 45.0)
           (-30.0 30.0)
           (-30.0 30.0)
  end
  begin
     id 13 
     name thorax
     direction -0.0165585 0.999826 -0.0085833   
     length 2.11039   
     axis 0 0 0   XYZ
    dof rx ry rz
    limits (-20.0 45.0)
           (-30.0 30.0)
           (-30.0 30.0)
  end
  begin
     id 14 
     name lowerneck
     direction -0.0130877 0.999911 0.00260353   
     length 1.73253   
     axis 0 0 0   XYZ
    dof rx ry rz
    limits (-20.0 45.0)
           (-30.0 30.0)
           (-30.0 30.0)
  end
  begin
     id 15 
     name upperneck
     direction -0.0348454 0.928205 -0.370435   
     length 1.66692   
     axis 0 0 0   XYZ
    dof rx ry rz
    limits (-20.0 45.0)
           (-30.0 30.0)
           (-30.0 30.0)
  end
  begin
     id 16
     name head
     direction -0.00807754 0.992494 -0.122026  
     length 1.72765  
     axis 0 0 0   XYZ
    dof rx ry rz
    limits (-20.0 45.0)
           (-30.0 30.0)
           (-30.0 30.0)
  end
  begin
     id 17 
     name lclavicle
     direction 0.987582 0.144023 0.0627671  
     length 3.49235  
     axis 0 0 0   XYZ
    dof ry rz
    limits (-20.0 10.0)
           (0.0 20.0)
  end
  begin
     id 18 
     name lhumerus
     direction 1 -4.48958e-011 -1.45183e-018   
     length 5.41917   
     axis 180 -30 -90   XYZ
    dof rx ry rz
    limits (-60.0 90.0)
           (-90.0 90.0)
           (-90.0 90.0)
  end
  begin
     id 19
     name lradius
     direction 1 -4.48999e-011 5.75106e-027   
     length 2.44373   
     axis 180 -30 -90   XYZ
    dof rx
    limits (-10.0 170.0)
  end
  begin
     id 20
     name lwrist
     direction 1 -4.48987e-011 1.53461e-026   
     length 1.22186   
     axis -1.09697e-014 90 90   XYZ
    dof ry
    limits (-180.0 0.0)
 end
  begin
     id 21 
     name lhand
     direction 1 -4.48881e-011 3.06923e-026   
     length 0.727502   
     axis -1.95843e-014 90 90   XYZ
    dof rx rz
    limits (-90.0 90.0)
           (-45.0 45.0)
  end
  begin
     id 22 
     name lfingers
     direction 1 -4.48907e-011 6.13845e-026   
     length 0.586531   
     axis -3.91686e-014 90 90   XYZ
    dof rx
    limits (0.0 90.0)
  end
  begin
     id 23
     name lthumb
     direction 0.707107 -6.3487e-011 0.707107   
     length 0.842145   
     axis -90 45 2.85299e-015   XYZ
    dof rx rz
    limits (-45.0 45.0)
           (-45.0 45.0)
  end
  begin
     id 24 
     name rclavicle
     direction -0.980998 0.169556 0.0943023   
     length 3.29272  
     axis 0 0 0   XYZ 
    dof ry rz
    limits (-10.0 20.0)
           (-20.0 0.0)
  end
  begin
     id 25 
     name rhumerus
     direction -1 -1.83355e-005 2.45537e-005  
     length 5.58976   
     axis 180 30 90   XYZ
    dof rx ry rz
    limits (-90.0 60.0)
           (-90.0 90.0)
           (-90.0 90.0)
  end
  begin
     id 26 
     name rradius
     direction -1 -4.48967e-011 5.97228e-027   
     length 2.4806   
     axis 180 30 90   XYZ
    dof rx
    limits (-10.0 170.0)
  end
  begin
     id 27 
     name rwrist
     direction -1 -4.48963e-011 1.53461e-026   
     length 1.2403   
     axis -1.09697e-014 -90 -90   XYZ
    dof ry
    limits (-180.0 0.0)
  end
  begin
     id 28
     name rhand
     direction -1 -4.48881e-011 3.06923e-026   
     length 0.816009   
     axis -1.95843e-014 -90 -90   XYZ
    dof rx rz
    limits (-90.0 90.0)
           (-45.0 45.0)
  end
  begin
     id 29
     name rfingers
     direction -1 -4.49018e-011 6.13845e-026   
     length 0.657887   
     axis -3.91686e-014 -90 -90   XYZ
    dof rx
    limits (0.0 90.0)
  end
  begin
     id 30
     name rthumb
     direction -0.707107 -6.34872e-011 0.707107   
     length 0.944599   
     axis -90 -45 -2.85299e-015   XYZ
    dof rx rz
    limits (-45.0 45.0)
           (-45.0 45.0)
  end
:hierarchy
  begin
    root lhipjoint rhipjoint lowerback
    lhipjoint lfemur
    lfemur ltibia
    ltibia lfoot
    lfoot ltoes
    rhipjoint rfemur
    rfemur rtibia
    rtibia rfoot
    rfoot rtoes
    lowerback upperback
    upperback thorax
    thorax lowerneck lclavicle rclavicle
    lowerneck upperneck
    upperneck head
    lclavicle lhumerus
    lhumerus lradius
    lradius lwrist
    lwrist lhand lthumb
    lhand lfingers
    rclavicle rhumerus
    rhumerus rradius
    rradius rwrist
    rwrist rhand rthumb
    rhand rfingers
  end

#!OML:ASF F:\VICON\USERDATA\INSTALL\rory3\rory3.ASF
:FULLY-SPECIFIED
:DEGREES
163
root 0.894996 16.477 36.8543 -155.434 -7.50034 -182.893
lowerback -17.0234 -0.727054 -6.30704
upperback -7.70504 -1.19203 -0.191873
thorax 1.34943 -0.979164 3.13968
lowerneck -9.79481 0.404012 -1.67049
upperneck 37.0996 -3.9293 0.880099
head 14.431 -3.33677 -0.31289
rclavicle 1.61831e-014 2.78795e-014
rhumerus -46.7303 24.3902 -96.6945
rradius 23.0356
rwrist -15.9135
rhand 22.5175 5.98155
rfingers 7.12502
rthumb 46.8727 -16.7406
lclavicle 1.61831e-014 2.78795e-014
lhumerus -45.2836 -2.70952 81.5811
lradius 26.993
lwrist -2.84512
lhand 26.4009 20.5935
lfingers 7.12502
lthumb 50.4442 41.5799
rfemur -36.0557 -23.9985 32.8161
rtibia 66.141
rfoot 29.6133 -28.6716
rtoes 22.8267
lfemur -46.0467 -2.09495 -32.8915
ltibia 45.0266
lfoot -33.9708 17.7956
ltoes 4.92494
164
root 0.903891 16.4792 36.8657 -155.224 -7.68765 -183.013
lowerback -17.0685 -0.83928 -6.50272
upperback -7.74453 -1.31841 -0.16897
thorax 1.34295 -1.04055 3.25133
lowerneck -9.85726 0.379753 -1.72059
upperneck 37.1547 -3.95893 0.863293
head 14.4724 -3.35972 -0.318387
rclavicle 9.11847e-015 -2.5345e-015
rhumerus -46.5717 24.5303 -96.7658
rradius 22.803
rwrist -16.0303
rhand 22.3023 7.19817
rfingers 7.12502
rthumb 46.6735 -15.6105
lclavicle 9.11847e-015 -2.5345e-015
lhumerus -45.2017 -2.83857 81.7433
lradius 27.2271
lwrist -2.64234
lhand 26.3343 20.5873
lfingers 7.12502
lthumb 50.3832 41.6064
rfemur -36.3834 -24.1103 32.9752
rtibia 66.2522
rfoot 28.7254 -29.5034
rtoes 24.4691
lfemur -46.2706 -2.19891 -32.9554
ltibia 44.9887
lfoot -33.8268 17.6468
ltoes 5.23197
165
root 0.8871 16.4783 36.8403 -155.789 -7.08649 -182.725
lowerback -17.1315 -0.598612 -6.19705
upperback -7.45031 -0.977654 -0.154869
thorax 1.66017 -0.868639 3.15056
lowerneck -10.7392 0.635279 -1.2427
upperneck 37.8163 -3.58688 0.432459
head 14.9687 -3.19169 -0.56318
rclavicle 2.13538e-016 -1.48095e-014
rhumerus -46.4189 24.6127 -96.7546
rradius 22.6669
rwrist -16.0513
rhand 23.3289 5.84492
rfingers 7.12502
rthumb 47.6226 -16.5421
lclavicle 2.13538e-016 -1.48095e-014
lhumerus -45.0928 -2.92317 81.9083
lradius 27.4049
lwrist -2.40763
lhand 26.2958 20.765
lfingers 7.12502
lthumb 50.3481 41.803
rfemur -35.4459 -23.9005 32.6413
rtibia 66.1127
rfoot 28.3993 -29.5775
rtoes 25.1015
lfemur -45.6103 -2.06719 -32.7327
ltibia 45.0041
lfoot -34.6331 17.6251
ltoes 6.49811
166
root 0.906338 16.4762 36.87 -155.155 -7.64237 -183.022
lowerback -17.1751 -0.868515 -6.5911
upperback -7.70069 -1.3305 -0.128585
thorax 1.44756 -1.04629 3.33908
lowerneck -11.0207 0.724448 -1.11956
upperneck 38.0907 -3.49432 0.347058
head 15.1645 -3.15301 -0.622355
rclavicle -1.80979e-014 -9.64106e-015
rhumerus -46.3855 24.5952 -96.7688
rradius 22.6683
rwrist -15.8896
rhand 22.5255 6.85913
rfingers 7.12502
rthumb 46.8801 -15.8597
lclavicle -1.80979e-014 -9.64106e-015
lhumerus -45.0326 -3.0467 82.0279
lradius 27.4487
lwrist -2.1645
lhand 26.2119 20.9141
lfingers 7.12502
lthumb 50.2714 41.9932
rfemur -36.4596 -24.1441 33.1151
rtibia 66.1859
rfoot 28.6895 -29.4008
rtoes 23.9256
lfemur -46.3329 -2.20548 -32.948
ltibia 44.9923
lfoot -34.12 17.1446
ltoes 6.63436
167
root 0.88404 16.4739 36.8416 -155.789 -6.99465 -182.732
lowerback -17.1551 -0.553525 -6.19466
upperback -7.452 -0.91867 -0.183446
thorax 1.66435 -0.840998 3.1295
lowerneck -10.962 0.722823 -1.13138
upperneck 38.1255 -3.53741 0.400343
head 15.1701 -3.1725 -0.605856
rclavicle 1.01963e-014 9.34288e-015
rhumerus -46.5537 24.7262 -96.9707
rradius 22.8559
rwrist -15.8628
rhand 22.5419 6.06961
rfingers 7.12502
rthumb 46.8953 -16.6426
lclavicle 1.01963e-014 9.34288e-015
lhumerus -44.9563 -3.17214 82.1252
lradius 27.4545
lwrist -2.02597
lhand 26.2306 21.1496
lfingers 7.12502
lthumb 50.2886 42.2195
rfemur -35.4369 -23.8876 32.6847
rtibia 66.0221
rfoot 29.4146 -28.5247
rtoes 22.6332
lfemur -45.6026 -2.13135 -32.7357
ltibia 45.0109
lfoot -34.8874 17.5515
ltoes 6.82731
168
root 0.899772 16.4731 36.8675 -155.238 -7.50574 -183.031
lowerback -17.2163 -0.818118 -6.57776
upperback -7.65362 -1.25413 -0.14731
thorax 1.5114 -1.00902 3.32428
lowerneck -10.9334 0.74148 -1.17362
upperneck 38.1239 -3.51326 0.429236
head 15.1635 -3.16615 -0.582082
rclavicle -8.82107e-015 9.74045e-015
rhumerus -46.6662 24.9497 -97.1468
rradius 23.0115
rwrist -15.8904
rhand 22.3618 5.68293
rfingers 7.12502
rthumb 46.7286 -17.1019
lclavicle -8.82107e-015 9.74045e-015
lhumerus -44.856 -3.15918 82.206
lradius 27.5234
lwrist -2.02642
lhand 26.4022 21.5967
lfingers 7.12502
lthumb 50.4454 42.5824
rfemur -36.3222 -24.0997 33.0274
rtibia 66.14
rfoot 28.6916 -29.6929
rtoes 24.5702
lfemur -46.2313 -2.22893 -32.9851
ltibia 44.9852
lfoot -34.1769 17.4573
ltoes 6.11788
169
root 0.880424 16.4735 36.8426 -155.78 -6.87619 -182.859
lowerback -17.2147 -0.580002 -6.33177
upperback -7.40141 -0.920496 -0.187564
thorax 1.74899 -0.840585 3.2009
lowerneck -10.909 0.762313 -1.21933
upperneck 38.125 -3.48211 0.447936
head 15.159 -3.15892 -0.561108
rclavicle -1.28123e-015 -3.13086e-015
rhumerus -46.6162 24.8482 -97.0481
rradius 23.0857
rwrist -15.6549
rhand 22.2261 5.69953
rfingers 7.12502
rthumb 46.6029 -17.1397
lclavicle -1.28123e-015 -3.13086e-015
lhumerus -44.8108 -3.19563 82.3011
lradius 27.6802
lwrist -1.93239
lhand 26.5062 21.9717
lfingers 7.12502
lthumb 50.5403 42.906
rfemur -35.4474 -23.8444 32.5318
rtibia 66.0216
rfoot 28.7858 -29.4587
rtoes 24.4552
lfemur -45.59 -2.11269 -32.9126
ltibia 44.9973
lfoot -34.712 17.7753
ltoes 6.58349
170
root 0.898851 16.4743 36.8723 -155.1 -7.40274 -183.161
lowerback -17.3104 -0.822063 -6.71172
upperback -7.66286 -1.23953 -0.19664
thorax 1.54719 -1.00479 3.34885
lowerneck -10.8262 0.739657 -1.21984
upperneck 38.1019 -3.53686 0.479322
head 15.1297 -3.18076 -0.554501
rclavicle 1.31501e-014 6.85807e-015
rhumerus -46.5471 24.6157 -96.9297
rradius 23.1667
rwrist -15.5275
rhand 22.0189 5.85896
rfingers 7.12502
rthumb 46.411 -17.0625
lclavicle 1.31501e-014 6.85807e-015
lhumerus -44.758 -3.42419 82.4248
lradius 27.8105
lwrist -1.84607
lhand 26.4394 21.9682
lfingers 7.12502
lthumb 50.4793 42.9356
rfemur -36.5554 -24.0072 32.9726
rtibia 66.1368
rfoot 28.7439 -29.6836
rtoes 24.3051
lfemur -46.3886 -2.22978 -33.151
ltibia 44.9946
lfoot -34.0666 17.5053
ltoes 5.8668
171
root 0.88222 16.4752 36.8514 -155.561 -6.88333 -182.808
lowerback -17.3771 -0.561082 -6.29477
upperback -7.43715 -0.904912 -0.19856
thorax 1.79339 -0.840574 3.16943
lowerneck -10.7872 0.712148 -1.2379
upperneck 38.053 -3.56614 0.480739
head 15.0972 -3.19329 -0.552441
rclavicle 2.25986e-014 -5.06901e-015
rhumerus -46.4302 24.6375 -96.9434
rradius 23.0792
rwrist -15.6043
rhand 23.3814 4.00765
rfingers 7.12502
rthumb 47.6711 -18.3572
lclavicle 2.25986e-014 -5.06901e-015
lhumerus -44.6518 -3.5534 82.5143
lradius 27.8815
lwrist -1.96313
lhand 26.4644 21.7465
lfingers 7.12502
lthumb 50.5022 42.7016
rfemur -35.8385 -23.7582 32.7946
rtibia 66.0541
rfoot 28.7903 -29.4714
rtoes 24.1366
lfemur -45.9011 -2.01014 -32.8938
ltibia 45.0226
lfoot -34.6486 17.5568
ltoes 6.60553
172
root 0.873718 16.4756 36.8455 -155.704 -6.71001 -182.674
lowerback -17.4161 -0.49626 -6.10762
upperback -7.34159 -0.82589 -0.169326
thorax 1.9107 -0.801909 3.10778
lowerneck -10.8413 0.741396 -1.29388
upperneck 38.0925 -3.51104 0.476421
head 15.1292 -3.17934 -0.538232
rclavicle 4.6528e-015 -2.28105e-014
rhumerus -46.3024 24.6792 -96.8986
rradius 22.9727
rwrist -15.5576
rhand 23.2101 4.48523
rfingers 7.12502
rthumb 47.5129 -17.9517
lclavicle 4.6528e-015 -2.28105e-014
lhumerus -44.5985 -3.5061 82.5369
lradius 27.9447
lwrist -2.21321
lhand 26.5688 21.3765
lfingers 7.12502
lthumb 50.5975 42.2798
rfemur -35.6613 -23.7778 32.7691
rtibia 66.1139
rfoot 28.9267 -29.1999
rtoes 23.5753
lfemur -45.7526 -1.86362 -32.8343
ltibia 45.0237
lfoot -34.7412 17.53
ltoes 7.05376
